<svg width="400" height="400" viewBox="0 0 400 400" fill="none" xmlns="http://www.w3.org/2000/svg">
<rect width="400" height="400" rx="60" fill="#065C5B"/>
<path d="M173.714 69.1573C191.252 68.9276 208.776 68.9497 226.314 69.222C227.346 95.2674 226.535 127.012 226.579 153.516C240.861 145.038 283.439 118.36 296.674 114.964C305.016 116.876 324.176 152.092 323.999 159.825C317.809 167.893 268.392 192.953 256.277 199.481C268.642 207.151 317.617 232.011 323.572 240.131C323.793 247.32 304.485 283.046 297.824 285.371C286.962 283.872 238.96 254.288 226.579 247.062C226.373 274.313 226.712 301.377 226.314 328.705C217.353 330.47 182.232 330.913 173.949 326.904C169.69 319.4 171.577 259.577 171.665 246.856C159.624 254.029 111.253 284.848 99.9637 285.384C93.4052 282.443 73.6707 247.942 75.0709 240.653C82.44 231.313 128.6 207.37 141.747 200.073C127.583 191.674 84.9898 170.361 75.3805 161.132C73.553 152.766 92.6683 118.335 101.069 115.12C112.609 116.909 157.457 145.124 171.532 152.946C171.385 138.952 169.381 77.8773 173.714 69.1573Z" fill="#FF4053"/>
</svg>
