<svg width="400" height="400" viewBox="0 0 400 400" fill="none" xmlns="http://www.w3.org/2000/svg">
<rect width="400" height="400" rx="60" fill="#2B727B"/>
<path d="M201.023 70.1675C213.694 68.5417 217.091 79.0475 219.406 88.8675C220.698 94.3492 222.111 99.8677 223.42 105.352C226.985 120.883 230.758 136.365 234.738 151.795C240.628 150.963 248.571 148.75 254.318 147.282L276.268 141.793C285.595 139.384 297.75 135.41 307.101 136.616C320.768 138.378 320.783 154.476 312.821 162.728C305.186 170.642 296.413 176.22 287.765 182.714C278.081 189.985 268.493 197.114 258.618 203.991C262.7 208.028 270.656 219.14 274.534 224.118C280.261 231.345 285.946 238.606 291.589 245.899C295.342 250.711 301.853 258.108 303.852 263.441C309.128 277.515 297.371 286.454 284.215 282.228C277.919 280.206 273.804 277.99 268.286 275.137C260.105 270.932 251.972 266.638 243.886 262.255C239.17 259.69 232.201 255.55 227.466 253.684C226.399 255.976 225.063 261.747 224.381 264.429C221.854 274.736 219.472 285.079 217.235 295.452C215.227 304.77 213.478 318.835 206.684 325.897C201.888 330.882 194.868 330.395 190.125 325.342C185.506 319.282 184.934 308.462 184.111 300.992C183.108 291.892 182.49 282.735 181.298 273.628C180.367 266.51 179.789 259.653 177.691 252.722C173.336 254.563 166.628 258.25 162.178 260.458C152.405 265.342 142.566 270.09 132.662 274.702C125.506 278.065 115.633 283.185 107.886 283.968C103.015 284.285 97.9657 283.287 94.2279 279.977C86.9564 273.537 90.0649 263.523 94.9939 256.716C98.8687 251.365 103.636 246.981 108.305 242.335C117.479 233.207 127.157 224.603 136.255 215.393C139.484 212.12 142.888 209.033 145.956 205.598C137.78 198.832 128.74 192.624 120.046 186.52C111.172 180.289 90.1147 166.733 84.8167 158.098C82.4699 154.273 81.3202 149.897 82.4204 145.447C83.1807 142.309 85.1712 139.608 87.9437 137.954C92.7569 135.089 100.343 136.582 105.545 137.751C111.792 139.155 118.056 140.827 124.273 142.389L171.521 154.271C172.943 151.057 174.892 142.228 175.715 138.537C178.26 127.047 180.745 115.543 183.17 104.027C184.167 99.216 185.085 94.3737 186.109 89.5687C188.006 80.6625 190.678 71.7595 201.023 70.1675Z" fill="#FF4053"/>
</svg>
